<svg xmlns="http://www.w3.org/2000/svg" version="1.1" xmlns:xlink="http://www.w3.org/1999/xlink" xmlns:svgjs="http://svgjs.com/svgjs" width="1920" height="1080" preserveAspectRatio="none" viewBox="0 0 1920 1080"><g mask="url(&quot;#SvgjsMask1715&quot;)" fill="none"><rect width="1920" height="1080" x="0" y="0" fill="url(#SvgjsLinearGradient1716)"></rect><path d="M1167.701,1282.874C1240.615,1279.709,1311.151,1254.148,1351.222,1193.149C1395.699,1125.443,1411.592,1039.796,1374.785,967.633C1334.72,889.082,1255.88,833.179,1167.701,833.338C1079.762,833.497,1005.215,891.842,961.906,968.377C919.306,1043.658,906.981,1137.994,954.344,1210.374C998.425,1277.739,1087.271,1286.365,1167.701,1282.874" fill="rgba(210, 13, 220, 0.33)" class="triangle-float2"></path><path d="M1939.099,1150.063C2052.752,1150.826,2179.574,1142.248,2239.644,1045.763C2302.112,945.426,2270.519,817.343,2209.126,716.344C2150.401,619.734,2052.157,551.419,1939.099,551.335C1825.904,551.251,1726.527,618.825,1668.38,715.944C1608.435,816.066,1583.712,942.755,1645.462,1041.775C1704.628,1136.652,1827.289,1149.313,1939.099,1150.063" fill="rgba(210, 13, 220, 0.33)" class="triangle-float1"></path><path d="M1453.375,735.079C1553.504,738.358,1636.798,667.144,1687.493,580.734C1738.903,493.105,1761.509,384.976,1710.225,297.273C1659.332,210.238,1554.134,176.775,1453.375,180.356C1359.218,183.702,1271.181,231.624,1226.311,314.47C1183.366,393.762,1201.549,486.875,1244.386,566.226C1289.985,650.693,1357.437,731.938,1453.375,735.079" fill="rgba(210, 13, 220, 0.33)" class="triangle-float3"></path><path d="M102.58,942.202C167.751,943.281,212.389,884.018,244.114,827.08C274.757,772.083,294.279,707.359,264.263,652.018C233.079,594.522,167.863,562.083,102.58,566.127C43.122,569.81,-0.235,617.281,-27.77,670.108C-52.944,718.406,-54.592,773.405,-31.061,822.524C-3.37,880.326,38.497,941.141,102.58,942.202" fill="rgba(210, 13, 220, 0.33)" class="triangle-float3"></path><path d="M1353.019,206.491C1386.124,204.753,1411.956,182.424,1429.918,154.561C1450.024,123.372,1468.069,86.471,1451.934,53.055C1434.141,16.205,1393.901,-6.478,1353.019,-4.696C1314.651,-3.024,1286.469,27.407,1267.991,61.073C1250.35,93.215,1242.227,131.793,1260.734,163.444C1279.098,194.85,1316.688,208.398,1353.019,206.491" fill="rgba(210, 13, 220, 0.33)" class="triangle-float3"></path></g><defs><mask id="SvgjsMask1715"><rect width="1920" height="1080" fill="#ffffff"></rect></mask><linearGradient x1="89.06%" y1="-19.44%" x2="10.94%" y2="119.44%" gradientUnits="userSpaceOnUse" id="SvgjsLinearGradient1716"><stop stop-color="rgba(43, 73, 105, 1)" offset="0.02"></stop><stop stop-color="rgba(2, 62, 140, 1)" offset="0.68"></stop></linearGradient><style>
            @keyframes float1 {
                0%{transform: translate(0, 0)}
                50%{transform: translate(-10px, 0)}
                100%{transform: translate(0, 0)}
            }

            .triangle-float1 {
                animation: float1 5s infinite;
            }

            @keyframes float2 {
                0%{transform: translate(0, 0)}
                50%{transform: translate(-5px, -5px)}
                100%{transform: translate(0, 0)}
            }

            .triangle-float2 {
                animation: float2 4s infinite;
            }

            @keyframes float3 {
                0%{transform: translate(0, 0)}
                50%{transform: translate(0, -10px)}
                100%{transform: translate(0, 0)}
            }

            .triangle-float3 {
                animation: float3 6s infinite;
            }
        </style></defs></svg>